<?xml version="1.0"?>
<svg xmlns="http://www.w3.org/2000/svg" width="800" height="810.4303">
<g transform="translate(26.47058,-88.323492) matrix(6.3813359,0,0,-6.3813359,-777.2239,1922.3775)" style="fill:#00426C;fill-rule:nonzero;stroke:none">
 <path transform="translate(224.0294,266.0411)" d="m 0,0 c -9.297,12.939 -24.477,21.368 -41.627,21.368 -28.287,0 -51.22,-22.933 -51.22,-51.22 0,-3.596 0.371,-7.1 1.075,-10.484 l 51.499,22.837 -28.169,0 c 4.695,10.069 14.905,17.056 26.747,17.056 8.133,0 15.499,-3.293 20.836,-8.612 L 0,0 z" />
 <path transform="translate(234.5233,268.5568)" style="fill:#008DBB" d="m 0,0 -51.447,-52.429 -65.428,0 L 0,0 z" />
 <path transform="translate(182.2162,206.6893)" d="m 0,0 c -7.22,0 -13.837,2.525 -19.013,6.731 l -27.512,0 c 8.549,-16.886 26.203,-28.479 46.593,-28.479 20.986,0 39.086,12.215 47.331,29.901 l -26.742,0 C 15.276,3.103 8.005,0 0,0" />
 <path transform="translate(128.4899,166.121)" d="m 0,0 -4.68,0 0,-3.648 5.233,0 0,-1.861 -7.5,0 0,12.419 7.223,0 0,-1.861 -4.956,0 0,-3.206 4.68,0 L 0,0 z" />
 <path transform="translate(133.2779,173.031)" d="m 0,0 0,-7.241 c 0,-2.433 1.014,-3.557 2.543,-3.557 1.64,0 2.617,1.124 2.617,3.557 l 0,7.241 2.266,0 0,-7.094 c 0,-3.833 -1.972,-5.528 -4.957,-5.528 -2.875,0 -4.736,1.603 -4.736,5.51 L -2.267,0 0,0 z" />
 <path transform="translate(143.2983,172.847)" d="m 0,0 c 0.866,0.166 2.119,0.276 3.427,0.276 1.788,0 2.986,-0.294 3.833,-0.995 0.682,-0.571 1.069,-1.437 1.069,-2.506 0,-1.603 -1.088,-2.69 -2.267,-3.095 l 0,-0.056 C 6.965,-6.708 7.5,-7.573 7.794,-8.771 8.2,-10.319 8.532,-11.756 8.771,-12.235 l -2.322,0 c -0.184,0.368 -0.497,1.381 -0.829,2.93 -0.368,1.621 -0.94,2.137 -2.229,2.174 l -1.143,0 0,-5.104 -2.248,0 L 0,0 z m 2.248,-5.473 1.345,0 c 1.53,0 2.469,0.811 2.469,2.046 0,1.345 -0.939,1.989 -2.414,1.989 -0.718,0 -1.179,-0.055 -1.4,-0.11 l 0,-3.925 z" />
 <path transform="translate(158.8656,160.4093)" d="m 0,0 c -3.519,0 -5.731,2.69 -5.731,6.32 0,3.796 2.414,6.504 5.915,6.504 3.612,0 5.749,-2.745 5.749,-6.283 C 5.933,2.377 3.409,0 0.018,0 L 0,0 z m 0.111,1.824 c 2.192,0 3.427,2.027 3.427,4.625 0,2.34 -1.161,4.551 -3.427,4.551 -2.267,0 -3.446,-2.155 -3.446,-4.625 0,-2.469 1.253,-4.551 3.427,-4.551 l 0.019,0 z" />
 <path transform="translate(175.6478,160.9805)" d="m 0,0 c -0.534,-0.258 -1.714,-0.553 -3.224,-0.553 -3.944,0 -6.339,2.469 -6.339,6.246 0,4.091 2.856,6.542 6.652,6.542 1.492,0 2.543,-0.295 3.003,-0.535 L -0.387,9.895 c -0.589,0.258 -1.419,0.479 -2.432,0.479 -2.525,0 -4.349,-1.585 -4.349,-4.57 0,-2.727 1.585,-4.459 4.331,-4.459 0.902,0 1.861,0.184 2.469,0.442 L 0,0 z" />
 <path transform="translate(182.1862,160.4093)" d="m 0,0 c -3.519,0 -5.731,2.69 -5.731,6.32 0,3.796 2.414,6.504 5.915,6.504 3.612,0 5.749,-2.745 5.749,-6.283 C 5.933,2.377 3.409,0 0.019,0 L 0,0 z m 0.111,1.824 c 2.192,0 3.427,2.027 3.427,4.625 0,2.34 -1.161,4.551 -3.427,4.551 -2.267,0 -3.446,-2.155 -3.446,-4.625 0,-2.469 1.253,-4.551 3.427,-4.551 l 0.019,0 z" />
 <path transform="translate(190.0507,160.6116)" d="m 0,0 0,12.419 2.599,0 3.205,-5.325 C 6.615,5.713 7.353,4.275 7.924,2.93 L 7.961,2.948 C 7.794,4.588 7.757,6.191 7.757,8.089 l 0,4.33 2.101,0 L 9.858,0 7.5,0 4.256,5.473 C 3.464,6.837 2.654,8.347 2.046,9.748 L 1.972,9.729 C 2.064,8.126 2.101,6.486 2.101,4.441 L 2.101,0 0,0 z" />
 <path transform="translate(204.899,171.1333)" d="m 0,0 -3.538,0 0,1.898 9.379,0 0,-1.898 -3.574,0 0,-10.522 -2.267,0 L 0,0 z" />
 <path transform="translate(212.1927,172.847)" d="m 0,0 c 0.866,0.166 2.119,0.276 3.427,0.276 1.788,0 2.986,-0.294 3.833,-0.995 0.682,-0.571 1.069,-1.437 1.069,-2.506 0,-1.603 -1.087,-2.69 -2.266,-3.095 l 0,-0.056 C 6.965,-6.708 7.5,-7.573 7.794,-8.771 8.2,-10.319 8.532,-11.756 8.771,-12.235 l -2.322,0 c -0.184,0.368 -0.497,1.381 -0.829,2.93 -0.368,1.621 -0.94,2.137 -2.229,2.174 l -1.143,0 0,-5.104 -2.248,0 L 0,0 z m 2.248,-5.473 1.345,0 c 1.53,0 2.47,0.811 2.47,2.046 0,1.345 -0.94,1.989 -2.415,1.989 -0.718,0 -1.179,-0.055 -1.4,-0.11 l 0,-3.925 z" />
 <path transform="translate(227.76,160.4093)" d="m 0,0 c -3.519,0 -5.731,2.69 -5.731,6.32 0,3.796 2.414,6.504 5.915,6.504 3.612,0 5.749,-2.745 5.749,-6.283 C 5.933,2.377 3.409,0 0.018,0 L 0,0 z m 0.11,1.824 c 2.193,0 3.428,2.027 3.428,4.625 C 3.538,8.789 2.377,11 0.11,11 -2.156,11 -3.335,8.845 -3.335,6.375 c 0,-2.469 1.253,-4.551 3.427,-4.551 l 0.018,0 z" />
 <path transform="translate(235.6429,173.031)" d="m 0,0 2.267,0 0,-10.521 5.104,0 0,-1.898 -7.371,0 L 0,0 z" />
</g>
</svg>